<svg width="40" height="16" viewBox="0 0 40 16" fill="none" xmlns="http://www.w3.org/2000/svg">
<path d="M7.5 0.5C6.17392 0.5 4.90215 1.02678 3.96447 1.96447C3.02678 2.90215 2.5 4.17392 2.5 5.5V6.75H1.25C0.918479 6.75 0.600537 6.8817 0.366117 7.11612C0.131696 7.35054 0 7.66848 0 8C0 8.33152 0.131696 8.64946 0.366117 8.88389C0.600537 9.11831 0.918479 9.25 1.25 9.25H2.5V10.5C2.5 11.8261 3.02678 13.0979 3.96447 14.0355C4.90215 14.9732 6.17392 15.5 7.5 15.5H10C11.9891 15.5 13.8968 14.7098 15.3033 13.3033C16.7098 11.8968 17.5 9.98912 17.5 8C17.5 7.33696 17.7634 6.70108 18.2322 6.23223C18.7011 5.76339 19.337 5.5 20 5.5C20.663 5.5 21.2989 5.76339 21.7678 6.23223C22.2366 6.70108 22.5 7.33696 22.5 8C22.5 9.98912 23.2902 11.8968 24.6967 13.3033C26.1032 14.7098 28.0109 15.5 30 15.5H32.5C33.8261 15.5 35.0979 14.9732 36.0355 14.0355C36.9732 13.0979 37.5 11.8261 37.5 10.5V9.25H38.75C39.0815 9.25 39.3995 9.11831 39.6339 8.88389C39.8683 8.64946 40 8.33152 40 8C40 7.66848 39.8683 7.35054 39.6339 7.11612C39.3995 6.8817 39.0815 6.75 38.75 6.75H37.5V5.5C37.5 4.17392 36.9732 2.90215 36.0355 1.96447C35.0979 1.02678 33.8261 0.5 32.5 0.5H27.5C26.4636 0.499618 25.4527 0.821302 24.6071 1.42056C23.7615 2.01981 23.123 2.86702 22.78 3.845C21.9574 3.29436 20.9899 3.00027 20 3C19.0101 3.00027 18.0426 3.29436 17.22 3.845C16.877 2.86702 16.2385 2.01981 15.3929 1.42056C14.5473 0.821302 13.5364 0.499618 12.5 0.5H7.5ZM7.5 3H9.8525C10.5125 3 10.7225 3.89 10.1325 4.185L8.99 4.755C8.02293 5.23873 7.23873 6.02293 6.755 6.99L6.185 8.1325C5.89 8.7225 5 8.5125 5 7.85V5.5C5 4.83696 5.26339 4.20107 5.73223 3.73223C6.20107 3.26339 6.83696 3 7.5 3Z" fill="#01D99C"/>
</svg>
