<svg width="88" height="88" viewBox="0 0 88 88" fill="none" xmlns="http://www.w3.org/2000/svg">
<path d="M0 6.25C0 4.5924 0.65848 3.00268 1.83058 1.83058C3.00268 0.65848 4.5924 0 6.25 0H18.75C20.4076 0 21.9973 0.65848 23.1694 1.83058C24.3415 3.00268 25 4.5924 25 6.25V18.75C25 20.4076 24.3415 21.9973 23.1694 23.1694C21.9973 24.3415 20.4076 25 18.75 25H6.25C4.5924 25 3.00268 24.3415 1.83058 23.1694C0.65848 21.9973 0 20.4076 0 18.75V6.25ZM31.25 6.25C31.25 4.5924 31.9085 3.00268 33.0806 1.83058C34.2527 0.65848 35.8424 0 37.5 0H50C51.6576 0 53.2473 0.65848 54.4194 1.83058C55.5915 3.00268 56.25 4.5924 56.25 6.25V18.75C56.25 20.4076 55.5915 21.9973 54.4194 23.1694C53.2473 24.3415 51.6576 25 50 25H37.5C35.8424 25 34.2527 24.3415 33.0806 23.1694C31.9085 21.9973 31.25 20.4076 31.25 18.75V6.25ZM62.5 6.25C62.5 4.5924 63.1585 3.00268 64.3306 1.83058C65.5027 0.65848 67.0924 0 68.75 0H81.25C82.9076 0 84.4973 0.65848 85.6694 1.83058C86.8415 3.00268 87.5 4.5924 87.5 6.25V18.75C87.5 20.4076 86.8415 21.9973 85.6694 23.1694C84.4973 24.3415 82.9076 25 81.25 25H68.75C67.0924 25 65.5027 24.3415 64.3306 23.1694C63.1585 21.9973 62.5 20.4076 62.5 18.75V6.25ZM0 37.5C0 35.8424 0.65848 34.2527 1.83058 33.0806C3.00268 31.9085 4.5924 31.25 6.25 31.25H18.75C20.4076 31.25 21.9973 31.9085 23.1694 33.0806C24.3415 34.2527 25 35.8424 25 37.5V50C25 51.6576 24.3415 53.2473 23.1694 54.4194C21.9973 55.5915 20.4076 56.25 18.75 56.25H6.25C4.5924 56.25 3.00268 55.5915 1.83058 54.4194C0.65848 53.2473 0 51.6576 0 50V37.5ZM31.25 37.5C31.25 35.8424 31.9085 34.2527 33.0806 33.0806C34.2527 31.9085 35.8424 31.25 37.5 31.25H50C51.6576 31.25 53.2473 31.9085 54.4194 33.0806C55.5915 34.2527 56.25 35.8424 56.25 37.5V50C56.25 51.6576 55.5915 53.2473 54.4194 54.4194C53.2473 55.5915 51.6576 56.25 50 56.25H37.5C35.8424 56.25 34.2527 55.5915 33.0806 54.4194C31.9085 53.2473 31.25 51.6576 31.25 50V37.5ZM62.5 37.5C62.5 35.8424 63.1585 34.2527 64.3306 33.0806C65.5027 31.9085 67.0924 31.25 68.75 31.25H81.25C82.9076 31.25 84.4973 31.9085 85.6694 33.0806C86.8415 34.2527 87.5 35.8424 87.5 37.5V50C87.5 51.6576 86.8415 53.2473 85.6694 54.4194C84.4973 55.5915 82.9076 56.25 81.25 56.25H68.75C67.0924 56.25 65.5027 55.5915 64.3306 54.4194C63.1585 53.2473 62.5 51.6576 62.5 50V37.5ZM0 68.75C0 67.0924 0.65848 65.5027 1.83058 64.3306C3.00268 63.1585 4.5924 62.5 6.25 62.5H18.75C20.4076 62.5 21.9973 63.1585 23.1694 64.3306C24.3415 65.5027 25 67.0924 25 68.75V81.25C25 82.9076 24.3415 84.4973 23.1694 85.6694C21.9973 86.8415 20.4076 87.5 18.75 87.5H6.25C4.5924 87.5 3.00268 86.8415 1.83058 85.6694C0.65848 84.4973 0 82.9076 0 81.25V68.75ZM31.25 68.75C31.25 67.0924 31.9085 65.5027 33.0806 64.3306C34.2527 63.1585 35.8424 62.5 37.5 62.5H50C51.6576 62.5 53.2473 63.1585 54.4194 64.3306C55.5915 65.5027 56.25 67.0924 56.25 68.75V81.25C56.25 82.9076 55.5915 84.4973 54.4194 85.6694C53.2473 86.8415 51.6576 87.5 50 87.5H37.5C35.8424 87.5 34.2527 86.8415 33.0806 85.6694C31.9085 84.4973 31.25 82.9076 31.25 81.25V68.75ZM62.5 68.75C62.5 67.0924 63.1585 65.5027 64.3306 64.3306C65.5027 63.1585 67.0924 62.5 68.75 62.5H81.25C82.9076 62.5 84.4973 63.1585 85.6694 64.3306C86.8415 65.5027 87.5 67.0924 87.5 68.75V81.25C87.5 82.9076 86.8415 84.4973 85.6694 85.6694C84.4973 86.8415 82.9076 87.5 81.25 87.5H68.75C67.0924 87.5 65.5027 86.8415 64.3306 85.6694C63.1585 84.4973 62.5 82.9076 62.5 81.25V68.75Z" fill="white"/>
</svg>
