<svg width="24" height="25" viewBox="0 0 24 25" fill="none" xmlns="http://www.w3.org/2000/svg">
<path fill-rule="evenodd" clip-rule="evenodd" d="M2.82835 1.30704C3.09082 1.04496 3.406 0.841656 3.75299 0.710597C4.09998 0.579538 4.47086 0.523719 4.84106 0.546838C5.21125 0.569958 5.57231 0.671488 5.9003 0.844701C6.22828 1.01791 6.51572 1.25885 6.74354 1.55155L9.43618 5.01073C9.9297 5.64526 10.1037 6.4718 9.9087 7.25184L9.08816 10.537C9.04603 10.7072 9.04847 10.8853 9.09524 11.0543C9.14201 11.2232 9.23153 11.3773 9.35517 11.5016L13.0409 15.1872C13.1653 15.3111 13.3196 15.4008 13.4888 15.4476C13.6581 15.4944 13.8365 15.4967 14.0069 15.4542L17.2906 14.6337C17.6756 14.538 18.0772 14.5308 18.4654 14.6127C18.8535 14.6945 19.2181 14.8633 19.5317 15.1062L22.9909 17.7974C24.2344 18.7649 24.3484 20.6025 23.2354 21.7141L21.6843 23.2651C20.5742 24.3752 18.9152 24.8627 17.3686 24.3182C13.4094 22.927 9.81501 20.6606 6.85305 17.6879C3.88046 14.7263 1.61411 11.1325 0.222717 7.17383C-0.32031 5.62876 0.167215 3.96817 1.27727 2.85812L2.82835 1.30704Z"/>
</svg>
